<svg aria-hidden="true" style="position: absolute; width: 0; height: 0; overflow: hidden;" version="1.1" xmlns="http://www.w3.org/2000/svg" xmlns:xlink="http://www.w3.org/1999/xlink">
  <defs>
    <symbol id="icon-user" viewBox="0 0 24 24">
      <path d="M21 21v-2c0-1.38-0.561-2.632-1.464-3.536s-2.156-1.464-3.536-1.464h-8c-1.38 0-2.632 0.561-3.536 1.464s-1.464 2.156-1.464 3.536v2c0 0.552 0.448 1 1 1s1-0.448 1-1v-2c0-0.829 0.335-1.577 0.879-2.121s1.292-0.879 2.121-0.879h8c0.829 0 1.577 0.335 2.121 0.879s0.879 1.292 0.879 2.121v2c0 0.552 0.448 1 1 1s1-0.448 1-1zM17 7c0-1.38-0.561-2.632-1.464-3.536s-2.156-1.464-3.536-1.464-2.632 0.561-3.536 1.464-1.464 2.156-1.464 3.536 0.561 2.632 1.464 3.536 2.156 1.464 3.536 1.464 2.632-0.561 3.536-1.464 1.464-2.156 1.464-3.536zM15 7c0 0.829-0.335 1.577-0.879 2.121s-1.292 0.879-2.121 0.879-1.577-0.335-2.121-0.879-0.879-1.292-0.879-2.121 0.335-1.577 0.879-2.121 1.292-0.879 2.121-0.879 1.577 0.335 2.121 0.879 0.879 1.292 0.879 2.121z"></path>
    </symbol>
    <symbol id="icon-edit" viewBox="0 0 24 24">
      <path d="M16.293 2.293l-13.5 13.5c-0.117 0.116-0.21 0.268-0.258 0.444l-1.5 5.5c-0.046 0.163-0.049 0.346 0 0.526 0.145 0.533 0.695 0.847 1.228 0.702l5.5-1.5c0.159-0.042 0.315-0.129 0.444-0.258l13.5-13.5c0.747-0.747 1.121-1.729 1.121-2.707s-0.374-1.96-1.121-2.707-1.729-1.121-2.707-1.121-1.96 0.374-2.707 1.121zM17.707 3.707c0.357-0.357 0.824-0.535 1.293-0.535s0.936 0.178 1.293 0.536 0.535 0.823 0.535 1.292-0.178 0.936-0.535 1.293l-13.312 13.312-3.556 0.97 0.97-3.555z"></path>
    </symbol>
    <symbol id="icon-log-in" viewBox="0 0 24 24">
      <path d="M15 4h4c0.276 0 0.525 0.111 0.707 0.293s0.293 0.431 0.293 0.707v14c0 0.276-0.111 0.525-0.293 0.707s-0.431 0.293-0.707 0.293h-4c-0.552 0-1 0.448-1 1s0.448 1 1 1h4c0.828 0 1.58-0.337 2.121-0.879s0.879-1.293 0.879-2.121v-14c0-0.828-0.337-1.58-0.879-2.121s-1.293-0.879-2.121-0.879h-4c-0.552 0-1 0.448-1 1s0.448 1 1 1zM12.586 11h-9.586c-0.552 0-1 0.448-1 1s0.448 1 1 1h9.586l-3.293 3.293c-0.391 0.391-0.391 1.024 0 1.414s1.024 0.391 1.414 0l5-5c0.096-0.096 0.168-0.206 0.217-0.324s0.076-0.247 0.076-0.383c0-0.13-0.025-0.261-0.076-0.383-0.049-0.118-0.121-0.228-0.217-0.324l-5-5c-0.391-0.391-1.024-0.391-1.414 0s-0.391 1.024 0 1.414z"></path>
    </symbol>
    <symbol id="icon-mail" viewBox="0 0 24 24">
      <path d="M3 7.921l8.427 5.899c0.34 0.235 0.795 0.246 1.147 0l8.426-5.899v10.079c0 0.272-0.11 0.521-0.295 0.705s-0.433 0.295-0.705 0.295h-16c-0.272 0-0.521-0.11-0.705-0.295s-0.295-0.433-0.295-0.705zM1 5.983c0 0.010 0 0.020 0 0.030v11.987c0 0.828 0.34 1.579 0.88 2.12s1.292 0.88 2.12 0.88h16c0.828 0 1.579-0.34 2.12-0.88s0.88-1.292 0.88-2.12v-11.988c0-0.010 0-0.020 0-0.030-0.005-0.821-0.343-1.565-0.88-2.102-0.541-0.54-1.292-0.88-2.12-0.88h-16c-0.828 0-1.579 0.34-2.12 0.88-0.537 0.537-0.875 1.281-0.88 2.103zM20.894 5.554l-8.894 6.225-8.894-6.225c0.048-0.096 0.112-0.183 0.188-0.259 0.185-0.185 0.434-0.295 0.706-0.295h16c0.272 0 0.521 0.11 0.705 0.295 0.076 0.076 0.14 0.164 0.188 0.259z"></path>
    </symbol>
    <symbol id="icon-trash" viewBox="0 0 24 24">
      <path d="M18 7v13c0 0.276-0.111 0.525-0.293 0.707s-0.431 0.293-0.707 0.293h-10c-0.276 0-0.525-0.111-0.707-0.293s-0.293-0.431-0.293-0.707v-13zM17 5v-1c0-0.828-0.337-1.58-0.879-2.121s-1.293-0.879-2.121-0.879h-4c-0.828 0-1.58 0.337-2.121 0.879s-0.879 1.293-0.879 2.121v1h-4c-0.552 0-1 0.448-1 1s0.448 1 1 1h1v13c0 0.828 0.337 1.58 0.879 2.121s1.293 0.879 2.121 0.879h10c0.828 0 1.58-0.337 2.121-0.879s0.879-1.293 0.879-2.121v-13h1c0.552 0 1-0.448 1-1s-0.448-1-1-1zM9 5v-1c0-0.276 0.111-0.525 0.293-0.707s0.431-0.293 0.707-0.293h4c0.276 0 0.525 0.111 0.707 0.293s0.293 0.431 0.293 0.707v1z"></path>
    </symbol>
    <symbol id="icon-navigate_next" viewBox="0 0 24 24">
      <path d="M9.984 6l6 6-6 6-1.406-1.406 4.594-4.594-4.594-4.594z"></path>
    </symbol>
    <symbol id="icon-plus-circle" viewBox="0 0 24 24">
      <path d="M23 12c0-3.037-1.232-5.789-3.222-7.778s-4.741-3.222-7.778-3.222-5.789 1.232-7.778 3.222-3.222 4.741-3.222 7.778 1.232 5.789 3.222 7.778 4.741 3.222 7.778 3.222 5.789-1.232 7.778-3.222 3.222-4.741 3.222-7.778zM21 12c0 2.486-1.006 4.734-2.636 6.364s-3.878 2.636-6.364 2.636-4.734-1.006-6.364-2.636-2.636-3.878-2.636-6.364 1.006-4.734 2.636-6.364 3.878-2.636 6.364-2.636 4.734 1.006 6.364 2.636 2.636 3.878 2.636 6.364zM8 13h3v3c0 0.552 0.448 1 1 1s1-0.448 1-1v-3h3c0.552 0 1-0.448 1-1s-0.448-1-1-1h-3v-3c0-0.552-0.448-1-1-1s-1 0.448-1 1v3h-3c-0.552 0-1 0.448-1 1s0.448 1 1 1z"></path>
    </symbol>
    <symbol id="icon-facebook1" viewBox="0 0 32 32">
      <path fill="#1877f2" style="fill: var(--color1, #1877f2)" d="M31.997 15.999c0-8.836-7.163-15.999-15.999-15.999s-15.999 7.163-15.999 15.999c0 7.985 5.851 14.604 13.499 15.804v-11.18h-4.062v-4.625h4.062v-3.525c0-4.010 2.389-6.225 6.043-6.225 1.75 0 3.581 0.313 3.581 0.313v3.937h-2.017c-1.987 0-2.607 1.233-2.607 2.498v3.001h4.437l-0.709 4.625h-3.728v11.18c7.649-1.2 13.499-7.819 13.499-15.804z"></path>
    </symbol>
    <symbol id="icon-google" viewBox="0 0 32 32">
      <path fill="#4285f4" style="fill: var(--color2, #4285f4)" d="M16.32 13.713v5.487h9.075c-0.367 2.353-2.741 6.899-9.075 6.899-5.46 0-9.919-4.519-9.919-10.099s4.46-10.099 9.919-10.099c3.107 0 5.188 1.319 6.38 2.465l4.339-4.184c-2.787-2.601-6.4-4.183-10.719-4.183-8.847 0-16 7.153-16 16s7.153 16 16 16c9.235 0 15.36-6.492 15.36-15.635 0-1.051-0.113-1.853-0.252-2.652z"></path>
    </symbol>
    <symbol id="icon-twitter" viewBox="0 0 32 32">
      <path fill="#1da1f2" style="fill: var(--color3, #1da1f2)" d="M31.939 6.092c-1.18 0.519-2.44 0.872-3.767 1.033 1.352-0.815 2.392-2.099 2.884-3.631-1.268 0.74-2.673 1.279-4.169 1.579-1.195-1.279-2.897-2.079-4.788-2.079-3.623 0-6.56 2.937-6.56 6.556 0 0.52 0.060 1.020 0.169 1.499-5.453-0.257-10.287-2.876-13.521-6.835-0.569 0.963-0.888 2.081-0.888 3.3 0 2.28 1.16 4.284 2.917 5.461-1.076-0.035-2.088-0.331-2.971-0.821v0.081c0 3.18 2.257 5.832 5.261 6.436-0.551 0.148-1.132 0.228-1.728 0.228-0.419 0-0.82-0.040-1.221-0.115 0.841 2.604 3.26 4.503 6.139 4.556-2.24 1.759-5.079 2.807-8.136 2.807-0.52 0-1.039-0.031-1.56-0.089 2.919 1.859 6.357 2.945 10.076 2.945 12.072 0 18.665-9.995 18.665-18.648 0-0.279 0-0.56-0.020-0.84 1.281-0.919 2.4-2.080 3.28-3.397z"></path>
    </symbol>
    <symbol id="icon-vue-dot-js" viewBox="0 0 32 32">
      <path fill="#4fc08d" style="fill: var(--color4, #4fc08d)" d="M32 2.147h-13.253l-2.747 4.733-2.747-4.733h-13.253l16 27.707zM16 18.773l-9.12-15.8h5.907l3.213 5.573 3.213-5.573h5.907z"></path>
    </symbol>
    <symbol id="icon-search" viewBox="0 0 32 32">
      <path d="M19.427 20.427c-1.39 0.99-3.090 1.573-4.927 1.573-4.694 0-8.5-3.806-8.5-8.5s3.806-8.5 8.5-8.5c4.694 0 8.5 3.806 8.5 8.5 0 1.837-0.583 3.537-1.573 4.927l5.585 5.585c0.55 0.55 0.546 1.431-0 1.976l-0.023 0.023c-0.544 0.544-1.431 0.546-1.976 0l-5.585-5.585zM14.5 20c3.59 0 6.5-2.91 6.5-6.5s-2.91-6.5-6.5-6.5c-3.59 0-6.5 2.91-6.5 6.5s2.91 6.5 6.5 6.5v0z"></path>
    </symbol>
  </defs>
</svg>
